<?xml version="1.0" encoding="utf-8"?>
<!-- Generator: Adobe Illustrator 16.0.0, SVG Export Plug-In . SVG Version: 6.00 Build 0)  -->
<!DOCTYPE svg PUBLIC "-//W3C//DTD SVG 1.1//EN" "http://www.w3.org/Graphics/SVG/1.1/DTD/svg11.dtd">
<svg version="1.1" id="Calque_1" xmlns="http://www.w3.org/2000/svg" xmlns:xlink="http://www.w3.org/1999/xlink" x="0px" y="0px"
	 width="888px" height="1640.939px" viewBox="0 0 888 1640.939" enable-background="new 0 0 888 1640.939" xml:space="preserve">
<rect x="43.012" y="32.003" fill="none" width="888" height="1970.972"/>
<g enable-background="new    ">
	<path d="M52.386,151.607v-1.318V76.168V32.003h16.113v45.044h50.83v74.561h-16.187V93.16H68.499v57.129v1.318H52.386z"/>
	<path d="M133.758,114.254c0-8.13,1.978-16.333,5.127-21.606c2.197-3.809,8.13-11.646,13.989-14.355
		c4.688-2.124,10.62-3.442,15.967-3.442c5.493,0,10.254,1.025,15.601,3.589c5.713,2.71,12.085,9.375,15.527,16.772
		c1.245,2.71,3.369,10.84,3.369,17.139v8.057h-52.881c0.513,3.149,1.392,5.786,2.271,7.251c0.952,1.758,4.907,5.786,7.91,8.35
		c2.563,1.025,5.273,1.538,8.203,1.538c3.149,0,12.231-2.124,15.161-3.589l4.102-2.051l13.33,11.353
		c-3.149,1.685-6.592,3.296-10.474,5.273h-0.073c-4.907,2.344-16.26,5.127-22.046,5.127c-5.64,0-10.986-1.025-15.967-3.369
		l-1.099-0.513l-0.879-0.806c-1.538-1.392-9.082-8.13-12.012-13.037c-3.149-5.273-5.127-13.55-5.127-21.606V114.254z
		 M185.98,104.293c-0.22-1.099-0.439-1.831-0.659-2.344c-2.344-4.468-6.226-8.203-7.764-8.862c-3.149-1.392-5.566-2.124-8.716-2.124
		c-3.442,0-7.178,0.879-9.302,1.978c-1.172,0.586-4.541,4.395-6.812,7.983c-0.439,0.732-0.952,1.831-1.392,3.369H185.98z"/>
	<path d="M214.691,151.607v-15.82l2.783-4.907l38.306-37.72h-37.573V77.047h59.18l5.273,14.136l-46.802,44.604h46.802v15.82H214.691
		z"/>
	<path d="M298.626,151.681v-112.5h16.113v45.703c0,0.366,0.073,0.806,0.146,1.318v0.513v0.073c0.806,0.659,1.685,1.392,2.271,1.758
		c0.806,0.22,1.392,0.293,1.685,0.366h0.806l0.806-0.073l40.576,0.073h0.293h1.318l1.758-0.366l2.197-1.758v-0.586
		c0.073-0.22,0.073-0.586,0.146-1.245c0.073-1.099,0.22-3.076,0.22-6.592V39.181h16.113v112.5h-16.113v-36.182l-0.146-4.98
		l-0.22-2.783v-0.586c-0.806-0.806-1.685-1.318-2.271-1.831c-0.879-0.22-1.392-0.22-1.685-0.293h-0.366h-0.439h-0.806h-40.576
		h-0.293h-1.318c-0.293,0.073-0.879,0.073-1.758,0.293c-0.513,0.513-1.392,1.025-2.197,1.831v0.586
		c-0.073,0.513-0.146,0.952-0.146,1.318v42.627H298.626z"/>
	<path d="M408.197,39.107h40.796c5.566,0,12.012,0.879,17.798,2.271c0.513,0.22,0.806,0.22,1.099,0.293
		c-0.22-0.073-0.513-0.073-0.732-0.073l2.93,0.806c7.397,3.735,18.091,13.477,19.189,14.722l1.245,1.465
		c3.296,5.2,5.054,10.693,5.64,16.626l0.146,1.538c0.293,2.856,0.659,7.178,0.659,11.206v15.088c0,4.028-0.366,8.35-0.659,11.206
		l-0.146,1.538c-0.586,5.933-2.344,11.499-5.64,16.553l-1.245,1.465c-1.099,1.245-11.792,11.06-19.189,14.795l-2.93,0.806
		c0.22,0,0.513,0,0.732-0.073c-0.293,0-0.586,0.146-1.099,0.22c-2.417,0.513-5.054,1.099-7.764,1.611
		c-2.49,0.513-4.907,0.732-7.251,0.732h-0.659h-5.64c-5.493,0-16.187-0.146-37.28-0.146V39.107z M424.383,135.787h23.218h2.49
		c3.662,0,10.4-1.318,12.964-1.904c0.293-0.073,0.513-0.146,0.659-0.146c3.882-2.124,10.034-7.471,13.696-10.913
		c1.538-2.563,2.417-5.347,2.71-8.35c0-0.513,0.073-1.025,0.146-1.611c0.22-2.856,0.513-6.519,0.513-9.814V87.96
		c0-3.296-0.293-7.104-0.513-9.814c-0.073-0.586-0.146-1.099-0.146-1.611c-0.293-3.003-1.172-5.859-2.71-8.423
		c-3.662-3.296-9.814-8.716-13.696-10.84c-0.293-0.073-0.513-0.146-0.659-0.146c-2.563-0.586-9.229-1.904-12.964-1.904h-0.439
		l-2.271,0.073h-22.925v33.765L424.383,135.787z"/>
	<path d="M517.547,93.16V77.047h12.451V32.003h16.113v45.044h25.635V93.16h-25.635v33.252c0,1.685,0.879,3.809,1.685,5.347
		c0.806,0.806,2.637,2.271,4.321,3.442c1.099,0.366,2.124,0.586,3.149,0.586h8.496V151.9h-8.496c-3.589,0-7.104-0.439-10.254-2.197
		l-1.172-0.659c-3.589-1.978-7.764-5.64-9.741-8.789c-0.952-1.538-4.102-7.324-4.102-13.843V93.16H517.547z"/>
	<path d="M582.586,114.254c0-4.98,2.051-10.84,3.809-16.187c0.073-0.366,0.22-0.659,0.293-0.879c0,0.073-0.146,0.366-0.22,0.732
		l1.318-3.076c4.175-6.152,14.136-13.843,16.04-15.381l1.611-0.952c5.054-2.417,10.474-3.589,16.26-3.589
		c5.566,0,10.913,0.806,15.894,3.442l1.099,0.586c1.465,0.806,3.589,2.417,5.859,4.102v-6.006h16.113v35.376
		c0,0.586,0.073,1.245,0.073,1.831v0.073v0.073c0,0.586-0.073,1.245-0.073,1.831v35.156h-16.113v-5.786
		c-2.271,1.685-4.395,3.296-5.859,4.102l-1.099,0.586c-4.98,2.637-10.327,3.442-15.894,3.442c-5.786,0-11.206-1.172-16.26-3.589
		l-1.611-0.952c-2.051-1.245-11.938-9.302-16.04-15.381l-1.318-3.076c0.073,0.366,0.22,0.659,0.22,0.732
		c-0.073-0.22-0.22-0.513-0.293-0.879c-1.758-5.347-3.809-11.206-3.809-16.187V114.254z M601.556,125.167
		c0.073,0.073,0.073,0.146,0.073,0.293c2.344,2.856,7.69,7.471,11.353,10.4c2.783,1.172,5.713,1.758,8.716,1.758
		s5.933-0.586,8.716-1.758c4.468-3.003,9.082-6.665,10.034-8.203c1.904-3.076,4.102-7.983,4.102-12.085v-2.49
		c0-4.102-2.051-9.009-4.102-12.158c-0.879-1.392-5.566-5.127-10.034-8.13c-2.783-1.172-5.713-1.758-8.716-1.758
		s-5.933,0.586-8.716,1.758c-3.662,2.93-9.009,7.544-11.353,10.4c0,0.146,0,0.22-0.073,0.293c-0.586,2.051-2.783,7.91-2.783,10.84
		S600.97,123.116,601.556,125.167z"/>
	<path d="M679.412,182.003V77.047h16.04v8.862c0-0.513,0.146-2.051,1.099-3.223c0.22-0.22,0.366-0.513,0.586-0.806
		c1.685-1.172,3.149-2.271,4.248-2.93l1.099-0.659c0.513-0.293,1.099-0.439,1.685-0.659l0.366-0.146
		c4.395-1.758,9.082-2.783,13.843-2.783c5.786,0,11.206,1.392,16.26,3.809l1.611,0.952c1.904,1.538,11.865,9.229,16.04,15.381
		l1.318,3.076c-0.073-0.439-0.146-0.659-0.22-0.732c0.073,0.22,0.146,0.513,0.366,0.879c1.831,5.273,3.735,11.206,3.735,16.187
		v0.146c0,4.98-1.904,10.913-3.735,16.187c-0.22,0.366-0.293,0.659-0.366,0.879c0.073-0.073,0.146-0.293,0.22-0.732l-1.318,3.076
		c-4.102,6.079-13.989,14.136-16.04,15.381l-1.538,0.952c-5.054,2.417-10.547,3.589-16.333,3.589
		c-5.566,0-10.913-0.806-15.894-3.442l-1.099-0.586c-1.465-0.806-3.589-2.417-5.859-4.175v36.475H679.412z M695.526,115.572
		c0,4.175,2.197,9.009,4.102,12.158c0.806,1.318,5.64,5.273,10.034,8.13c2.783,1.172,5.713,1.758,8.716,1.758
		c3.076,0,6.006-0.586,8.716-1.758c3.662-2.93,9.009-7.544,11.353-10.4c0-0.073,0.073-0.22,0.073-0.293
		c0.586-2.051,2.783-7.91,2.783-10.84c0-3.003-2.197-8.862-2.783-10.84c0-0.22-0.073-0.22-0.073-0.293
		c-2.344-2.856-7.69-7.471-11.353-10.4c-2.71-1.172-5.64-1.758-8.716-1.758c-3.003,0-5.933,0.586-8.716,1.758
		c-4.468,2.856-9.229,6.812-10.034,8.203c-1.904,3.076-4.102,7.983-4.102,12.085V115.572z"/>
	<path d="M765.911,114.181c0-10.034,4.907-19.189,6.445-21.68c3.149-5.054,11.792-11.719,15.674-13.77l1.099-0.586
		c4.98-2.637,10.4-3.442,15.967-3.442c5.786,0,11.279,1.172,16.333,3.589l1.538,0.952c1.904,1.538,12.012,9.375,16.113,15.381
		l1.318,3.149c-0.073-0.146-0.073-0.293-0.073-0.513c0-0.073,0-0.146-0.073-0.22c0.073,0.22,0.073,0.513,0.293,0.879
		c1.831,5.273,3.735,11.206,3.735,16.26v0.073c0,5.054-1.904,10.986-3.735,16.26c-0.22,0.366-0.22,0.659-0.293,0.879
		c0.073-0.073,0.073-0.146,0.073-0.22c0-0.22,0-0.366,0.073-0.513l-1.318,3.149c-4.028,5.933-14.136,14.136-16.113,15.381
		l-1.538,0.952c-5.054,2.417-10.547,3.589-16.333,3.589c-5.566,0-11.206-0.513-15.967-3.369l-1.099-0.659
		c-3.809-2.271-12.524-8.716-15.674-13.77c-1.538-2.49-6.445-11.646-6.445-21.68V114.181z M786.273,127.657
		c0.806,1.318,5.64,5.273,10.107,8.203c2.783,1.172,5.713,1.758,8.716,1.758c3.076,0,6.006-0.586,8.789-1.758
		c3.662-2.93,9.009-7.544,11.353-10.474c0.073-0.073,0.073-0.146,0.073-0.22c0.806-1.978,2.856-7.983,2.856-10.913
		s-2.051-9.082-2.856-10.986c0-0.073,0-0.146-0.073-0.22c-2.344-2.93-7.69-7.544-11.353-10.474
		c-2.783-1.172-5.713-1.758-8.789-1.758c-3.003,0-5.933,0.586-8.716,1.758c-4.468,2.93-9.302,6.885-10.181,8.276
		c-2.124,3.369-4.102,8.936-4.102,13.403S784.149,124.142,786.273,127.657z"/>
</g>
<g enable-background="new    ">
	<path d="M58.697,388.956V273.129h27.607v88.218h41.035v-88.218h27.607v128.5c0,6.65-2.385,14.18-4.769,20.831
		c-0.126,0.502-0.251,0.878-0.251,1.004c0-0.126-0.502,1.38-0.879,2.008l-1.004,1.882l-1.129,1.758
		c-1.883,2.886-4.267,6.65-7.906,10.039c-5.897,5.27-12.674,8.783-13.803,9.16c-6.525,3.137-13.553,4.643-21.208,4.643
		c-7.153,0-14.557-0.627-20.706-4.392l-1.882-1.13c-5.897-3.514-15.937-11.168-19.953-17.818l23.717-14.055
		c1.381,1.506,5.898,5.02,10.416,8.156c2.886,1.004,5.521,1.631,8.407,1.631c3.388,0,6.525-0.752,9.663-2.133h0.125
		c1.004-0.502,4.267-2.259,6.65-4.393c0.879-0.878,2.008-2.886,3.012-4.266c0.377-0.377,0.252-0.754,0.628-1.13l0.126-0.126
		c2.635-7.905,3.137-10.666,3.137-11.67v-12.674H58.697z"/>
	<path d="M182.554,302.243v-27.607h21.207v-32.627c0-11.796,5.647-21.96,7.404-24.972c3.389-5.647,11.043-12.674,17.693-16.062
		l2.008-1.004c5.773-2.886,12.173-4.016,18.698-4.016c0.126,0.125,17.442,0.251,25.976,4.267c1.632,0.753,7.027,3.639,11.42,9.286
		l-22.086,16.564c-0.377-0.376-0.753-0.753-1.004-0.878c-2.635-0.627-10.164-1.631-14.306-1.631c-2.384,0-4.518,0.376-6.399,1.255
		c-3.514,2.384-7.153,5.271-8.533,6.651c-1.632,3.012-3.264,7.278-3.264,10.667v32.501h41.788v27.607h-41.788v99.387h-27.607
		v-99.387H182.554z"/>
	<path d="M298.63,401.002V195.954h27.607v107.042c3.891-0.502,7.529-1.129,11.169-2.51c7.403-4.392,17.944-11.294,22.839-15.937
		c2.51-5.396,3.891-8.784,4.518-11.168h28.109c-0.879,7.529-4.267,15.686-7.654,22.839c-0.377,0.627-0.377,0.878-0.502,1.255
		l-0.126,0.125l-0.628,1.129l-1.882,3.137c-5.897,6.274-17.317,14.18-25.098,18.949l57.851,59.858l-19.828,19.326l-67.01-69.396
		l-1.758,0.251v70.148H298.63z"/>
	<path d="M435.413,223.562v-27.607h48.939v15.31v189.739h-27.607V223.562H435.413z"/>
	<path d="M544.337,352.94c4.266,5.271,17.191,15.184,25.223,20.58c6.274,2.384,12.926,3.514,20.078,3.514s13.93-1.129,20.078-3.514
		c9.788-5.396,19.576-12.549,21.584-15.184c4.393-6.023,8.408-15.561,8.408-23.215s-4.142-17.317-8.408-23.341
		c-2.133-2.384-12.047-9.286-21.584-15.059c-6.148-2.384-12.926-3.514-20.078-3.514c-6.902,0-13.428,1.129-19.701,3.388
		c-2.636,2.008-6.902,6.274-7.529,7.529v0.376h-28.235v-96.375h114.069v27.733H561.78v34.384c9.035-3.137,18.321-4.643,27.858-4.643
		c10.918,0,21.207,1.882,30.996,5.772l1.882,0.753c7.78,3.137,25.6,15.184,31.497,23.968c3.138,4.643,13.303,20.706,13.303,38.901
		v0.251c0,18.196-10.165,34.258-13.303,38.901c-5.897,8.91-23.968,20.33-31.497,23.843l-1.882,0.878
		c-9.537,4.518-20.078,5.772-30.996,5.772c-11.043,0-21.961-1.129-31.623-6.023l-2.51-1.255
		c-2.385-1.632-23.969-16.313-32.752-27.105L544.337,352.94z"/>
	<path d="M711.111,363.481c0-2.886,0.125-10.29,0.125-22.211c0.126-20.455,0.252-59.23,0.252-133.143h27.607v127.998h3.388
		c9.537,0,16.94-0.125,27.356-1.882s23.843-6.149,26.227-6.776c3.891-0.878,4.77-3.012,4.77-3.514v-52.58h27.732v129.504h-27.732
		v-46.431c-10.541,3.388-19.953,6.023-26.354,7.027c-6.273,1.004-20.83,2.384-31.999,2.259L711.111,363.481z"/>
</g>
<g enable-background="new    ">
	<path d="M49.978,543.464v-18.691h14.358v-22.09c0-7.986,3.823-14.868,5.013-16.907c2.294-3.823,7.477-8.581,11.979-10.875
		l1.359-0.68c3.908-1.954,8.241-2.719,12.659-2.719c0.085,0.085,11.81,0.17,17.587,2.889c1.104,0.51,4.758,2.464,7.731,6.287
		l-14.953,11.215c-0.255-0.255-0.51-0.51-0.68-0.595c-1.784-0.425-6.882-1.104-9.686-1.104c-1.614,0-3.059,0.255-4.333,0.85
		c-2.379,1.614-4.843,3.568-5.777,4.503c-1.104,2.039-2.209,4.928-2.209,7.222v22.005h28.292v18.691H83.028v67.289H64.336v-67.289
		H49.978z"/>
	<path d="M128.057,566.744c0-5.777,2.209-12.659,4.333-18.776c0.255-0.595,0.34-0.935,0.34-1.02c0,0-0.085,0.255-0.17,0.85
		l1.529-3.568c4.758-7.052,16.312-16.058,18.521-17.757l1.784-1.104c5.862-2.804,12.149-4.163,18.861-4.163
		c6.457,0,12.829,0.85,18.352,3.908l1.359,0.765c1.614,0.935,4.078,2.719,6.712,4.758v-6.457h18.606l0.085,75.7
		c0,11.725-5.607,22.09-7.392,25.063c-3.483,6.032-13.424,13.594-18.012,15.888l-1.359,0.68c-5.607,2.804-11.895,3.993-18.352,3.993
		h-2.209h-2.719c-5.098,0-10.62-0.34-15.463-2.379c-1.02-0.425-3.313-1.274-6.457-3.229l9.601-16.058
		c1.104,0.68,1.954,1.189,2.549,1.444c0.34,0.255,0.68,0.34,0.935,0.425l-0.17-0.085l1.02,0.425c1.954,0.85,7.052,0.765,10.45,0.765
		h2.464c3.483,0,6.882-0.68,10.025-2.039c5.183-3.398,10.705-7.816,11.725-9.431c2.039-3.059,3.738-7.901,4.503-12.319
		c-2.634,1.954-4.843,3.823-6.542,4.673l-1.359,0.68c-5.607,2.804-11.895,3.908-18.352,3.908c-6.627,0-12.914-1.359-18.861-4.078
		l-1.784-1.104c-2.209-1.699-13.764-10.705-18.521-17.757l-1.529-3.653c0,0.255,0.085,0.34,0.085,0.595c0,0.085,0,0.17,0.085,0.255
		c0-0.085-0.085-0.425-0.34-1.02c-2.124-6.117-4.333-12.914-4.333-18.691V566.744z M149.977,579.318
		c0.085,0.085,0.085,0.17,0.085,0.255c2.719,3.398,8.921,8.751,13.084,12.064c3.229,1.359,6.627,2.039,10.11,2.039
		s6.882-0.68,10.025-2.039c5.183-3.398,10.705-7.816,11.725-9.431c2.379-3.653,4.673-9.431,4.673-14.528v-1.869
		c0-5.098-2.549-10.705-4.758-14.528c-1.104-1.529-6.372-6.032-11.64-9.431c-3.144-1.359-6.542-1.954-10.025-1.954
		s-6.882,0.595-10.025,1.954c-4.248,3.398-10.45,8.751-13.169,12.064c0,0.085,0,0.17-0.085,0.255
		c-0.68,2.379-3.229,9.176-3.229,12.574S149.297,576.939,149.977,579.318z"/>
	<path d="M234.003,566.914c0-9.431,2.294-18.946,5.947-25.063c2.549-4.418,9.431-13.509,16.228-16.652
		c5.438-2.464,12.319-3.993,18.521-3.993c6.372,0,11.895,1.189,18.097,4.163c6.627,3.144,14.019,10.875,18.012,19.456
		c1.444,3.144,3.908,12.574,3.908,19.881v9.346h-61.342c0.595,3.653,1.614,6.712,2.634,8.411c1.104,2.039,5.692,6.712,9.176,9.686
		c2.974,1.189,6.117,1.784,9.516,1.784c3.653,0,14.188-2.464,17.587-4.163l4.758-2.379l15.463,13.169
		c-3.653,1.954-7.646,3.823-12.149,6.117h-0.085c-5.692,2.719-18.861,5.947-25.573,5.947c-6.542,0-12.744-1.189-18.521-3.908
		l-1.274-0.595l-1.02-0.935c-1.784-1.614-10.535-9.431-13.934-15.123c-3.653-6.117-5.947-15.718-5.947-25.063V566.914z
		 M294.58,555.359c-0.255-1.274-0.51-2.124-0.765-2.719c-2.719-5.183-7.222-9.516-9.006-10.28c-3.653-1.614-6.457-2.464-10.11-2.464
		c-3.993,0-8.326,1.02-10.79,2.294c-1.359,0.68-5.268,5.098-7.901,9.261c-0.51,0.85-1.104,2.124-1.614,3.908H294.58z"/>
	<path d="M334.512,610.244l0.085-130.5h88.699v18.691h-70.008v37.213h51.401v18.691h-51.401v37.383h68.988v18.691L334.512,610.244z"
		/>
	<path d="M446.575,586.625l2.464-6.287l76.635-81.647h-77.229v-18.691h98.215l6.967,15.633l-89.379,96.091l90.483-0.085v18.776
		H448.36v-0.085h-1.699L446.575,586.625z"/>
	<path d="M578.35,566.744c0-5.777,2.209-12.659,4.333-18.776c0.255-0.595,0.34-0.935,0.34-1.02c0,0-0.085,0.255-0.17,0.85
		l1.529-3.568c4.758-7.052,16.312-16.058,18.521-17.757l1.784-1.104c5.862-2.804,12.149-4.163,18.861-4.163
		c6.457,0,12.829,0.85,18.352,3.908l1.359,0.765c1.614,0.935,4.078,2.719,6.712,4.758v-6.457h18.606l0.085,75.7
		c0,11.725-5.607,22.09-7.392,25.063c-3.483,6.032-13.424,13.594-18.012,15.888l-1.359,0.68c-5.607,2.804-11.895,3.993-18.352,3.993
		h-2.209h-2.719c-5.098,0-10.62-0.34-15.463-2.379c-1.02-0.425-3.313-1.274-6.457-3.229l9.601-16.058
		c1.104,0.68,1.954,1.189,2.549,1.444c0.34,0.255,0.68,0.34,0.935,0.425l-0.17-0.085l1.02,0.425c1.954,0.85,7.052,0.765,10.45,0.765
		h2.464c3.483,0,6.882-0.68,10.025-2.039c5.183-3.398,10.705-7.816,11.725-9.431c2.039-3.059,3.738-7.901,4.503-12.319
		c-2.634,1.954-4.843,3.823-6.542,4.673l-1.359,0.68c-5.607,2.804-11.895,3.908-18.352,3.908c-6.627,0-12.914-1.359-18.861-4.078
		l-1.784-1.104c-2.209-1.699-13.764-10.705-18.521-17.757l-1.529-3.653c0,0.255,0.085,0.34,0.085,0.595c0,0.085,0,0.17,0.085,0.255
		c0-0.085-0.085-0.425-0.34-1.02c-2.124-6.117-4.333-12.914-4.333-18.691V566.744z M600.27,579.318
		c0.085,0.085,0.085,0.17,0.085,0.255c2.719,3.398,8.921,8.751,13.084,12.064c3.229,1.359,6.627,2.039,10.11,2.039
		s6.882-0.68,10.025-2.039c5.183-3.398,10.705-7.816,11.725-9.431c2.379-3.653,4.673-9.431,4.673-14.528v-1.869
		c0-5.098-2.549-10.705-4.758-14.528c-1.104-1.529-6.372-6.032-11.64-9.431c-3.144-1.359-6.542-1.954-10.025-1.954
		s-6.882,0.595-10.025,1.954c-4.248,3.398-10.45,8.751-13.169,12.064c0,0.085,0,0.17-0.085,0.255
		c-0.68,2.379-3.229,9.176-3.229,12.574S599.59,576.939,600.27,579.318z"/>
	<path d="M683.362,543.464v-18.691h14.358v-22.09c0-7.986,3.823-14.868,5.013-16.907c2.294-3.823,7.477-8.581,11.979-10.875
		l1.359-0.68c3.908-1.954,8.241-2.719,12.659-2.719c0.085,0.085,11.81,0.17,17.587,2.889c1.104,0.51,4.758,2.464,7.731,6.287
		l-14.953,11.215c-0.255-0.255-0.51-0.51-0.68-0.595c-1.784-0.425-6.882-1.104-9.686-1.104c-1.614,0-3.059,0.255-4.333,0.85
		c-2.379,1.614-4.843,3.568-5.777,4.503c-1.104,2.039-2.209,4.928-2.209,7.222v22.005h28.292v18.691h-28.292v67.289H697.72v-67.289
		H683.362z"/>
	<path d="M766.029,617.465c2.804,2.294,5.098,3.653,6.712,4.588c0.935,0.595,1.784,0.935,2.464,1.189h-0.085l0.935,0.34
		c2.124,0.765,6.967,0.85,10.365,0.85h2.379c3.483,0,6.797-0.68,9.855-2.039c5.098-3.483,10.45-7.562,11.555-9.346
		c2.294-3.908,4.673-10.025,4.673-15.208l-0.085-56.414h-14.188v-18.437h32.54l0.085,74.851c0,11.64-5.607,21.75-7.307,24.724
		c-3.313,5.777-13.339,13.254-17.757,15.633l-1.274,0.68c-5.607,2.974-11.725,3.908-18.097,3.908h-2.209h-2.634
		c-5.013,0-10.45-0.34-15.208-2.294c-1.784-0.765-6.967-2.889-14.104-8.581L766.029,617.465z M814.371,485.011v-8.921l4.588-4.588
		h8.921l4.588,4.588v8.921l-4.588,4.588h-8.921L814.371,485.011z"/>
</g>
<g enable-background="new    ">
	<path d="M53.274,783.388c0-7.504,2.869-16.442,5.628-24.388c0.331-0.772,0.441-1.214,0.441-1.324c0,0-0.11,0.331-0.221,1.104
		l1.986-4.635c6.18-9.159,21.188-20.856,24.057-23.063l2.317-1.435c7.614-3.642,15.78-5.407,24.498-5.407
		c8.387,0,16.663,1.104,23.836,5.076l1.766,0.993c2.097,1.214,5.297,3.531,8.718,6.18v-8.387h24.167l0.11,98.323
		c0,15.229-7.283,28.691-9.601,32.555c-4.524,7.834-17.436,17.656-23.395,20.635l-1.766,0.883
		c-7.283,3.643-15.449,5.188-23.836,5.188h-2.869h-3.531c-6.621,0-13.794-0.441-20.084-3.09c-1.324-0.553-4.304-1.656-8.387-4.193
		l12.47-20.857c1.435,0.883,2.538,1.545,3.311,1.877c0.441,0.33,0.883,0.441,1.214,0.551l-0.221-0.109l1.324,0.551
		c2.538,1.104,9.159,0.994,13.573,0.994h3.2c4.524,0,8.938-0.883,13.021-2.648c6.731-4.414,13.904-10.152,15.229-12.25
		c2.648-3.973,4.855-10.262,5.849-16c-3.421,2.537-6.29,4.965-8.497,6.068l-1.766,0.883c-7.283,3.643-15.449,5.076-23.836,5.076
		c-8.607,0-16.773-1.766-24.498-5.297l-2.317-1.434c-2.869-2.207-17.877-13.904-24.057-23.064l-1.986-4.745
		c0,0.331,0.11,0.441,0.11,0.772c0,0.11,0,0.221,0.11,0.331c0-0.11-0.11-0.552-0.441-1.324c-2.759-7.945-5.628-16.773-5.628-24.277
		V783.388z M81.744,799.72c0.11,0.11,0.11,0.221,0.11,0.331c3.531,4.414,11.587,11.366,16.994,15.67
		c4.193,1.766,8.607,2.648,13.132,2.648s8.938-0.883,13.021-2.648c6.731-4.414,13.904-10.152,15.229-12.249
		c3.09-4.745,6.069-12.249,6.069-18.87v-2.428c0-6.621-3.311-13.904-6.18-18.87c-1.435-1.986-8.276-7.835-15.118-12.249
		c-4.083-1.766-8.497-2.538-13.021-2.538s-8.938,0.772-13.021,2.538c-5.518,4.414-13.573,11.366-17.104,15.67
		c0,0.11,0,0.221-0.11,0.331c-0.883,3.09-4.193,11.918-4.193,16.332S80.862,796.63,81.744,799.72z"/>
	<path d="M217.366,797.734c3.752,4.635,15.118,13.353,22.181,18.098c5.518,2.097,11.366,3.09,17.656,3.09s12.249-0.993,17.656-3.09
		c8.607-4.745,17.215-11.035,18.98-13.353c3.862-5.297,7.394-13.684,7.394-20.415s-3.642-15.229-7.394-20.525
		c-1.876-2.097-10.594-8.166-18.98-13.242c-5.407-2.097-11.366-3.09-17.656-3.09c-6.069,0-11.808,0.993-17.325,2.979
		c-2.317,1.766-6.069,5.518-6.621,6.621v0.331h-24.829v-84.75h100.31v24.388h-76.032v30.236c7.945-2.759,16.111-4.083,24.498-4.083
		c9.601,0,18.649,1.655,27.257,5.076l1.655,0.662c6.842,2.759,22.512,13.353,27.698,21.077c2.759,4.083,11.697,18.208,11.697,34.209
		v0.221c0,16.001-8.938,30.126-11.697,34.209c-5.187,7.834-21.077,17.877-27.698,20.967l-1.655,0.771
		c-8.387,3.973-17.656,5.076-27.257,5.076c-9.711,0-19.312-0.992-27.809-5.297l-2.207-1.104
		c-2.097-1.434-21.077-14.346-28.802-23.835L217.366,797.734z"/>
	<path d="M351.444,753.152v-24.277h18.649v-28.691c0-10.373,4.966-19.312,6.511-21.96c2.979-4.966,9.711-11.146,15.56-14.125
		l1.766-0.883c5.076-2.538,10.704-3.531,16.442-3.531c0.11,0.11,15.339,0.221,22.843,3.752c1.435,0.662,6.18,3.2,10.042,8.166
		l-19.422,14.566c-0.331-0.331-0.662-0.662-0.883-0.772c-2.317-0.552-8.938-1.435-12.58-1.435c-2.097,0-3.973,0.331-5.628,1.104
		c-3.09,2.097-6.29,4.635-7.504,5.849c-1.435,2.648-2.869,6.4-2.869,9.38v28.581h36.747v24.277H394.37v87.398h-24.277v-87.398
		H351.444z"/>
	<path d="M452.857,783.609c0-12.249,2.979-24.608,7.725-32.554c3.311-5.738,12.249-17.546,21.077-21.629
		c7.062-3.2,16.001-5.187,24.057-5.187c8.276,0,15.449,1.545,23.505,5.407c8.607,4.083,18.208,14.125,23.395,25.271
		c1.876,4.083,5.076,16.332,5.076,25.822v12.139h-79.674c0.772,4.745,2.097,8.718,3.421,10.925
		c1.435,2.648,7.394,8.718,11.918,12.58c3.862,1.545,7.945,2.317,12.359,2.317c4.745,0,18.429-3.2,22.843-5.407l6.18-3.09
		l20.084,17.104c-4.745,2.539-9.932,4.967-15.78,7.945h-0.11c-7.394,3.531-24.498,7.725-33.216,7.725
		c-8.497,0-16.553-1.545-24.057-5.076l-1.655-0.771l-1.324-1.215c-2.317-2.096-13.684-12.248-18.098-19.642
		c-4.745-7.945-7.725-20.415-7.725-32.554V783.609z M531.537,768.601c-0.331-1.655-0.662-2.759-0.993-3.531
		c-3.531-6.731-9.38-12.359-11.697-13.353c-4.745-2.097-8.387-3.2-13.132-3.2c-5.187,0-10.814,1.324-14.015,2.979
		c-1.766,0.883-6.842,6.621-10.263,12.028c-0.662,1.104-1.435,2.759-2.097,5.076H531.537z"/>
	<path d="M574.795,839.888v-23.835l4.193-7.394l57.714-56.831h-56.61V727.55h89.164l7.945,21.298l-70.515,67.204h70.515v23.835
		H574.795z"/>
	<path d="M709.755,818.921c4.304,0,8.276-0.772,12.028-2.428c5.628-4.745,13.573-11.697,16.663-16.111
		c1.766-2.428,5.407-6.621,15.449-16.332c-10.042-9.711-13.684-13.684-15.449-16.222c-3.09-4.304-11.035-11.697-16.663-16.111
		c-3.973-1.655-7.945-2.538-12.028-2.538v-24.277c8.276,0,16.553,1.324,23.726,5.518l2.428,1.435
		c2.759,2.428,16.884,13.794,23.063,22.953c2.317,2.648,12.249,12.58,20.746,20.415l3.862,8.828l-3.752,8.828
		c-8.607,7.945-18.539,17.877-20.856,20.415c-6.18,9.159-20.305,20.635-23.063,23.063l-2.317,1.436
		c-7.394,3.641-15.339,5.406-23.836,5.406V818.921z M762.393,818.921c4.304,0,8.387-0.772,12.028-2.428
		c5.518-4.635,13.573-11.918,16.663-16.222c1.655-2.428,5.518-6.621,15.449-16.222c-9.932-9.711-13.684-13.573-15.449-16.222
		c-2.869-4.414-11.146-11.697-16.663-16.111c-3.862-1.655-7.835-2.538-12.028-2.538v-24.277c8.276,0,16.222,1.876,23.836,5.518
		l2.317,1.435c2.869,2.317,16.884,13.794,23.063,22.953c2.428,2.759,12.359,12.47,20.856,20.415l3.752,8.828l-3.752,8.828
		c-8.607,7.945-18.539,17.767-20.856,20.415c-6.18,9.159-20.084,20.747-23.063,23.063l-2.317,1.436
		c-7.394,3.641-15.339,5.406-23.836,5.406V818.921z"/>
</g>
<g enable-background="new    ">
	<path d="M51.678,1004.276V940.28h15.254v48.742h22.673V940.28h15.254v71c0,3.674-1.317,7.834-2.635,11.51
		c-0.069,0.277-0.139,0.484-0.139,0.555c0-0.07-0.277,0.762-0.485,1.109l-0.555,1.039l-0.624,0.971
		c-1.04,1.596-2.357,3.676-4.368,5.547c-3.259,2.912-7.003,4.854-7.627,5.062c-3.605,1.732-7.488,2.564-11.718,2.564
		c-3.952,0-8.043-0.346-11.44-2.426l-1.04-0.625c-3.259-1.941-8.806-6.17-11.024-9.846l13.104-7.766
		c0.763,0.832,3.259,2.773,5.755,4.508c1.595,0.555,3.051,0.9,4.646,0.9c1.872,0,3.605-0.416,5.339-1.178h0.069
		c0.555-0.277,2.357-1.248,3.675-2.428c0.485-0.484,1.109-1.594,1.664-2.357c0.208-0.207,0.139-0.416,0.347-0.623l0.069-0.07
		c1.456-4.367,1.733-5.893,1.733-6.447v-7.004H51.678z"/>
	<path d="M120.39,1010.655V897.638h15.254v48.328c2.149-1.596,4.16-3.121,5.547-3.883l1.04-0.555
		c4.715-2.496,9.776-3.26,15.046-3.26c5.478,0,10.608,1.109,15.393,3.398l1.456,0.9c1.803,1.457,11.302,8.807,15.254,14.561
		l1.248,2.912c-0.069-0.346-0.208-0.623-0.208-0.693c0.069,0.209,0.208,0.486,0.277,0.832c1.664,5.062,3.536,10.609,3.536,15.324
		v0.139c0,4.715-1.872,10.262-3.536,15.322c-0.069,0.348-0.208,0.625-0.277,0.832c0-0.068,0.139-0.346,0.208-0.693l-1.248,2.912
		c-3.883,5.686-13.382,13.383-15.254,14.561l-1.456,0.902c-4.784,2.287-9.915,3.396-15.393,3.396c-5.27,0-10.331-0.762-15.046-3.258
		l-1.04-0.555c-1.387-0.764-3.397-2.289-5.547-3.883v5.477H120.39z M135.644,976.751c0,3.951,2.08,8.527,3.883,11.51
		c0.763,1.248,5.339,4.992,9.499,7.695c2.635,1.109,5.408,1.664,8.251,1.664s5.616-0.555,8.251-1.664
		c3.467-2.773,8.528-7.141,10.747-9.846c0-0.139,0-0.207,0.069-0.277c0.555-1.941,2.635-7.488,2.635-10.262s-2.08-8.32-2.635-10.262
		c-0.069-0.068-0.069-0.139-0.069-0.277c-2.219-2.703-7.28-7.072-10.747-9.846c-2.635-1.109-5.408-1.664-8.251-1.664
		s-5.616,0.555-8.251,1.664c-4.229,2.705-8.736,6.449-9.499,7.766c-1.803,2.912-3.883,7.559-3.883,11.441V976.751z"/>
	<path d="M206.782,975.364c0-4.715,1.803-10.332,3.536-15.324c0.208-0.484,0.277-0.762,0.277-0.832c0,0-0.069,0.209-0.139,0.693
		l1.248-2.912c3.883-5.754,13.312-13.104,15.115-14.49l1.456-0.902c4.784-2.287,9.915-3.396,15.393-3.396
		c5.27,0,10.47,0.693,14.977,3.189l1.109,0.623c1.317,0.764,3.328,2.219,5.478,3.883v-5.27h15.185l0.069,61.779
		c0,9.568-4.576,18.027-6.032,20.453c-2.843,4.924-10.955,11.094-14.699,12.967l-1.109,0.555c-4.576,2.287-9.707,3.258-14.977,3.258
		h-1.803h-2.219c-4.16,0-8.667-0.277-12.619-1.941c-0.832-0.346-2.704-1.039-5.27-2.635l7.835-13.104
		c0.901,0.555,1.595,0.971,2.08,1.178c0.277,0.209,0.555,0.277,0.763,0.348l-0.139-0.07l0.832,0.348
		c1.595,0.693,5.755,0.623,8.528,0.623h2.011c2.843,0,5.616-0.555,8.182-1.664c4.229-2.773,8.736-6.379,9.568-7.695
		c1.664-2.496,3.051-6.449,3.675-10.055c-2.149,1.596-3.952,3.121-5.339,3.814l-1.109,0.555c-4.576,2.287-9.707,3.189-14.977,3.189
		c-5.408,0-10.539-1.109-15.393-3.328l-1.456-0.902c-1.803-1.387-11.232-8.736-15.115-14.49l-1.248-2.982
		c0,0.209,0.069,0.277,0.069,0.486c0,0.068,0,0.139,0.069,0.207c0-0.068-0.069-0.346-0.277-0.832
		c-1.733-4.992-3.536-10.539-3.536-15.254V975.364z M224.671,985.626c0.069,0.068,0.069,0.139,0.069,0.207
		c2.219,2.773,7.28,7.143,10.678,9.846c2.635,1.109,5.408,1.664,8.251,1.664s5.616-0.555,8.182-1.664
		c4.229-2.773,8.736-6.379,9.568-7.695c1.941-2.982,3.813-7.697,3.813-11.857v-1.525c0-4.16-2.08-8.736-3.883-11.855
		c-0.901-1.248-5.2-4.924-9.499-7.697c-2.565-1.109-5.339-1.594-8.182-1.594s-5.616,0.484-8.182,1.594
		c-3.467,2.773-8.528,7.143-10.747,9.846c0,0.07,0,0.139-0.069,0.209c-0.555,1.941-2.635,7.488-2.635,10.262
		S224.116,983.685,224.671,985.626z"/>
	<path d="M302.882,997.69c2.704,0,5.2-0.486,7.558-1.525c3.536-2.982,8.528-7.35,10.47-10.123c1.109-1.525,3.397-4.16,9.707-10.262
		c-6.31-6.102-8.598-8.598-9.707-10.193c-1.941-2.703-6.934-7.35-10.47-10.123c-2.496-1.039-4.992-1.594-7.558-1.594v-15.254
		c5.2,0,10.4,0.832,14.907,3.467l1.525,0.9c1.733,1.525,10.608,8.668,14.491,14.422c1.456,1.664,7.696,7.904,13.035,12.828
		l2.427,5.547l-2.357,5.547c-5.408,4.992-11.648,11.232-13.104,12.826c-3.883,5.756-12.758,12.967-14.491,14.492l-1.456,0.9
		c-4.646,2.289-9.638,3.398-14.977,3.398V997.69z M335.955,997.69c2.704,0,5.27-0.486,7.558-1.525
		c3.467-2.912,8.528-7.488,10.47-10.193c1.04-1.525,3.467-4.16,9.707-10.191c-6.24-6.102-8.598-8.529-9.707-10.193
		c-1.803-2.773-7.003-7.35-10.47-10.123c-2.427-1.039-4.923-1.594-7.558-1.594v-15.254c5.2,0,10.192,1.178,14.977,3.467l1.456,0.9
		c1.803,1.457,10.608,8.668,14.491,14.422c1.525,1.734,7.766,7.836,13.104,12.828l2.357,5.547l-2.357,5.547
		c-5.408,4.992-11.648,11.162-13.104,12.826c-3.883,5.756-12.619,13.035-14.491,14.492l-1.456,0.9
		c-4.646,2.289-9.638,3.398-14.977,3.398V997.69z"/>
	<path d="M397.248,1010.655V897.638h15.254v48.328c2.149-1.596,4.16-3.121,5.547-3.883l1.04-0.555
		c4.715-2.496,9.776-3.26,15.046-3.26c5.478,0,10.608,1.109,15.393,3.398l1.456,0.9c1.803,1.457,11.302,8.807,15.254,14.561
		l1.248,2.912c-0.069-0.346-0.208-0.623-0.208-0.693c0.069,0.209,0.208,0.486,0.277,0.832c1.664,5.062,3.536,10.609,3.536,15.324
		v0.139c0,4.715-1.872,10.262-3.536,15.322c-0.069,0.348-0.208,0.625-0.277,0.832c0-0.068,0.139-0.346,0.208-0.693l-1.248,2.912
		c-3.883,5.686-13.382,13.383-15.254,14.561l-1.456,0.902c-4.784,2.287-9.915,3.396-15.393,3.396c-5.27,0-10.331-0.762-15.046-3.258
		l-1.04-0.555c-1.387-0.764-3.397-2.289-5.547-3.883v5.477H397.248z M412.502,976.751c0,3.951,2.08,8.527,3.883,11.51
		c0.763,1.248,5.339,4.992,9.499,7.695c2.635,1.109,5.408,1.664,8.251,1.664s5.616-0.555,8.251-1.664
		c3.467-2.773,8.528-7.141,10.747-9.846c0-0.139,0-0.207,0.069-0.277c0.555-1.941,2.635-7.488,2.635-10.262s-2.08-8.32-2.635-10.262
		c-0.069-0.068-0.069-0.139-0.069-0.277c-2.219-2.703-7.28-7.072-10.747-9.846c-2.635-1.109-5.408-1.664-8.251-1.664
		s-5.616,0.555-8.251,1.664c-4.229,2.705-8.736,6.449-9.499,7.766c-1.803,2.912-3.883,7.559-3.883,11.441V976.751z"/>
	<path d="M481.561,940.349h16.571l22.534,54.846l22.604-54.846h16.571l-29.19,70.723h-20.038L481.561,940.349z"/>
	<path d="M608.515,975.503c0-7.697,1.872-15.463,4.854-20.455c2.08-3.605,7.696-11.023,13.243-13.59
		c4.438-2.01,10.054-3.258,15.115-3.258c5.2,0,9.707,0.971,14.769,3.396c5.408,2.566,11.44,8.875,14.699,15.879
		c1.179,2.564,3.189,10.262,3.189,16.225v7.627h-50.061c0.485,2.98,1.317,5.477,2.149,6.863c0.901,1.664,4.646,5.479,7.488,7.904
		c2.427,0.971,4.992,1.457,7.766,1.457c2.981,0,11.579-2.012,14.353-3.398l3.883-1.941l12.619,10.748
		c-2.981,1.594-6.24,3.119-9.915,4.992h-0.069c-4.646,2.219-15.393,4.854-20.87,4.854c-5.339,0-10.4-0.971-15.115-3.189l-1.04-0.486
		l-0.832-0.762c-1.456-1.318-8.598-7.697-11.371-12.342c-2.981-4.992-4.854-12.828-4.854-20.455V975.503z M657.951,966.073
		c-0.208-1.041-0.416-1.734-0.624-2.219c-2.219-4.23-5.894-7.766-7.35-8.391c-2.981-1.316-5.27-2.01-8.251-2.01
		c-3.259,0-6.795,0.832-8.806,1.871c-1.109,0.555-4.299,4.16-6.448,7.559c-0.416,0.693-0.901,1.732-1.317,3.189H657.951z"/>
	<path d="M687.766,975.503c0-9.568,4.715-18.098,6.102-20.455c2.843-4.783,11.024-11.232,14.699-13.035l1.109-0.555
		c4.715-2.357,9.776-3.258,15.046-3.258c2.427,0,15.739,0.693,21.771,3.396c0.901,0.416,5.2,2.566,8.528,7.004l-12.203,9.221
		c-0.555-0.762-1.248-1.248-1.803-1.732l-0.971-0.625c-1.803-0.9-10.539-2.01-15.323-2.01c-2.843,0-5.616,0.555-8.251,1.664
		c-4.229,2.773-8.736,6.518-9.568,7.766c-2.08,3.119-3.883,8.527-3.883,12.619c0,4.299,1.941,9.43,3.952,12.688
		c0.763,1.318,5.339,4.992,9.499,7.697c2.635,1.109,5.408,1.664,8.251,1.664c4.715,0,13.312-1.041,15.323-1.941
		c0.208-0.209,1.664-0.971,3.051-2.705l11.856,9.639c-3.675,4.645-7.835,6.586-8.528,6.934c-6.032,2.773-19.275,3.328-21.702,3.328
		c-5.27,0-10.47-0.625-15.046-3.189l-1.109-0.625c-3.605-2.01-11.856-8.182-14.699-12.965c-1.387-2.357-6.102-10.955-6.102-20.455
		V975.503z"/>
	<path d="M763.966,975.503c0-7.697,1.872-15.463,4.854-20.455c2.08-3.605,7.696-11.023,13.243-13.59
		c4.438-2.01,10.054-3.258,15.115-3.258c5.2,0,9.707,0.971,14.769,3.396c5.408,2.566,11.44,8.875,14.699,15.879
		c1.179,2.564,3.189,10.262,3.189,16.225v7.627h-50.061c0.485,2.98,1.317,5.477,2.149,6.863c0.901,1.664,4.646,5.479,7.488,7.904
		c2.427,0.971,4.992,1.457,7.766,1.457c2.981,0,11.579-2.012,14.353-3.398l3.883-1.941l12.619,10.748
		c-2.981,1.594-6.24,3.119-9.915,4.992h-0.069c-4.646,2.219-15.393,4.854-20.87,4.854c-5.339,0-10.4-0.971-15.115-3.189l-1.04-0.486
		l-0.832-0.762c-1.456-1.318-8.598-7.697-11.371-12.342c-2.981-4.992-4.854-12.828-4.854-20.455V975.503z M775.129,910.188
		l41.879-13.105l4.576,14.561l-41.879,13.105L775.129,910.188z M813.403,966.073c-0.208-1.041-0.416-1.734-0.624-2.219
		c-2.219-4.23-5.894-7.766-7.35-8.391c-2.981-1.316-5.27-2.01-8.251-2.01c-3.259,0-6.795,0.832-8.806,1.871
		c-1.109,0.555-4.299,4.16-6.448,7.559c-0.416,0.693-0.901,1.732-1.317,3.189H813.403z"/>
</g>
<g enable-background="new    ">
	<path d="M54.27,1071.583h42.712l58.081,141.361l58.26-141.361h42.712l-75.237,182.285H129.15L54.27,1071.583z"/>
	<path d="M295.708,1162.548c0-1.609,0.179-3.217,0.179-4.826v-86.139h39.316v14.477c5.54-4.111,10.723-8.043,14.297-10.008
		l2.681-1.43l-0.357,0.178l1.608-1.25c3.753-2.859,10.901-7.863,20.909-7.863c9.472,0,16.799,4.824,22.339,8.221
		c1.251,0.715,2.859,1.787,3.396,1.965l3.753,2.324c3.396,2.145,19.301,15.189,27.343,25.734l-35.206,19.658
		c-4.289-4.289-10.365-9.473-14.833-13.225c-1.966-1.252-3.753-1.787-5.54-3.217l-0.715-0.537c-1.43,0.895-2.681,1.967-4.646,2.859
		c-10.723,6.971-23.054,17.156-25.02,20.373c-4.646,7.506-10.008,19.48-10.008,29.488v94.002h-39.316v-90.785H295.708z"/>
	<path d="M450.472,1162.19c0-19.838,4.825-39.854,12.51-52.721c5.361-9.293,19.837-28.414,34.134-35.027
		c11.438-5.182,25.913-8.398,38.959-8.398c13.403,0,25.02,2.502,38.065,8.756c13.939,6.613,29.487,22.875,37.887,40.926
		c3.038,6.611,8.221,26.449,8.221,41.818v19.658H491.218c1.251,7.684,3.396,14.117,5.54,17.691
		c2.323,4.289,11.974,14.119,19.301,20.373c6.255,2.502,12.867,3.754,20.016,3.754c7.685,0,29.845-5.184,36.993-8.758l10.008-5.004
		l32.525,27.701c-7.685,4.109-16.084,8.041-25.556,12.867h-0.179c-11.974,5.719-39.674,12.51-53.792,12.51
		c-13.761,0-26.807-2.502-38.959-8.221l-2.681-1.252l-2.145-1.965c-3.753-3.396-22.16-19.838-29.309-31.811
		c-7.685-12.867-12.51-33.062-12.51-52.721V1162.19z M577.893,1137.886c-0.536-2.682-1.072-4.469-1.608-5.719
		c-5.719-10.902-15.19-20.016-18.943-21.625c-7.685-3.395-13.582-5.182-21.267-5.182c-8.399,0-17.514,2.145-22.696,4.824
		c-2.859,1.43-11.08,10.723-16.62,19.48c-1.072,1.787-2.323,4.467-3.396,8.221H577.893z"/>
	<path d="M649.556,1162.19c0-12.152,5.004-26.449,9.293-39.496c0.179-0.893,0.536-1.607,0.715-2.145c0,0.18-0.357,0.895-0.536,1.787
		l3.217-7.506c10.187-15.012,34.491-33.775,39.138-37.529l3.932-2.322c12.331-5.898,25.556-8.758,39.674-8.758
		c13.582,0,26.628,1.967,38.78,8.4l2.681,1.43c3.574,1.965,8.757,5.896,14.297,10.008v-14.654h39.316v86.316
		c0,1.43,0.179,3.039,0.179,4.469v0.178v0.18c0,1.43-0.179,3.037-0.179,4.467v85.781h-39.316v-14.117
		c-5.54,4.109-10.723,8.041-14.297,10.008l-2.681,1.43c-12.152,6.434-25.198,8.398-38.78,8.398c-14.118,0-27.343-2.859-39.674-8.756
		l-3.932-2.324c-5.004-3.037-29.13-22.695-39.138-37.529l-3.217-7.506c0.179,0.895,0.536,1.609,0.536,1.787
		c-0.179-0.535-0.536-1.25-0.715-2.145c-4.289-13.045-9.293-27.342-9.293-39.494V1162.19z M695.842,1188.817
		c0.179,0.18,0.179,0.357,0.179,0.715c5.719,6.971,18.765,18.229,27.7,25.377c6.791,2.859,13.939,4.289,21.267,4.289
		s14.476-1.43,21.267-4.289c10.901-7.326,22.16-16.262,24.483-20.016c4.646-7.506,10.008-19.479,10.008-29.486v-6.076
		c0-10.008-5.004-21.982-10.008-29.666c-2.145-3.396-13.582-12.51-24.483-19.838c-6.791-2.859-13.939-4.289-21.267-4.289
		s-14.476,1.43-21.267,4.289c-8.936,7.148-21.981,18.408-27.7,25.377c0,0.357,0,0.537-0.179,0.715
		c-1.43,5.004-6.791,19.301-6.791,26.449S694.412,1183.813,695.842,1188.817z"/>
</g>
<g enable-background="new    ">
	<path d="M48.671,1343.206h21.473l29.199,71.066l29.289-71.066h21.473l-37.824,91.641H86.316L48.671,1343.206z"/>
	<path d="M165.738,1434.577v-19.406l3.414-6.02l46.988-46.27h-46.09v-19.766h72.594l6.469,17.34l-57.41,54.715h57.41v19.406H165.738
		z"/>
	<path d="M268.698,1434.667v-138h19.766v56.062c0,0.449,0.09,0.988,0.18,1.617v0.629v0.09c0.988,0.809,2.066,1.707,2.785,2.156
		c0.988,0.27,1.707,0.359,2.066,0.449h0.988l0.988-0.09l49.773,0.09h0.359h1.617l2.156-0.449l2.695-2.156v-0.719
		c0.09-0.27,0.09-0.719,0.18-1.527c0.09-1.348,0.27-3.773,0.27-8.086v-48.066h19.766v138h-19.766v-44.383l-0.18-6.109l-0.27-3.414
		v-0.719c-0.988-0.988-2.066-1.617-2.785-2.246c-1.078-0.27-1.707-0.27-2.066-0.359h-0.449h-0.539h-0.988h-49.773h-0.359h-1.617
		c-0.359,0.09-1.078,0.09-2.156,0.359c-0.629,0.629-1.707,1.258-2.695,2.246v0.719c-0.09,0.629-0.18,1.168-0.18,1.617v52.289
		H268.698z"/>
	<path d="M404.452,1434.577l0.09-138h93.797v19.766h-74.031v39.352h54.355v19.766h-54.355v39.531h72.953v19.766L404.452,1434.577z"
		/>
	<path d="M527.269,1434.667v-138.09h19.766v118.234h53.637v-118.234h19.766v138.09H527.269z"/>
	<path d="M650.984,1434.577l0.09-138h93.797v19.766h-74.031v39.352h54.355v19.766h-54.355v39.531h72.953v19.766L650.984,1434.577z"
		/>
	<path d="M772.363,1442.214c2.965,2.426,5.391,3.863,7.098,4.852c0.988,0.629,1.887,0.988,2.605,1.258h-0.09l0.988,0.359
		c2.246,0.809,7.367,0.898,10.961,0.898h2.516c3.684,0,7.188-0.719,10.422-2.156c5.391-3.684,11.051-7.996,12.219-9.883
		c2.426-4.133,4.941-10.602,4.941-16.082l-0.09-59.656h-15.004v-19.496h34.41l0.09,79.152c0,12.309-5.93,23-7.727,26.145
		c-3.504,6.109-14.105,14.016-18.777,16.531l-1.348,0.719c-5.93,3.145-12.398,4.133-19.137,4.133h-2.336h-2.785
		c-5.301,0-11.051-0.359-16.082-2.426c-1.887-0.809-7.367-3.055-14.914-9.074L772.363,1442.214z M823.484,1302.147v-9.434
		l4.852-4.852h9.434l4.852,4.852v9.434l-4.852,4.852h-9.434L823.484,1302.147z"/>
</g>
<g enable-background="new    ">
	<path d="M48.136,1543.835v-13.75h10.562v-16.25c0-5.875,2.812-10.938,3.688-12.438c1.688-2.812,5.5-6.312,8.812-8l1-0.5
		c2.875-1.438,6.062-2,9.312-2c0.062,0.062,8.688,0.125,12.938,2.125c0.812,0.375,3.5,1.812,5.688,4.625l-11,8.25
		c-0.188-0.188-0.375-0.375-0.5-0.438c-1.312-0.312-5.062-0.812-7.125-0.812c-1.188,0-2.25,0.188-3.188,0.625
		c-1.75,1.188-3.562,2.625-4.25,3.312c-0.812,1.5-1.625,3.625-1.625,5.312v16.188h20.812v13.75H72.448v49.5h-13.75v-49.5H48.136z"/>
	<path d="M106.948,1592.96v-96h13.75v42.812h4.062h1.875c4.188,0,8.188-0.938,12-2.875c3.688-3.375,11.812-11.25,15.312-16.438
		l0.375-1.125c1.125-3.312,3.75-12.25,3.75-17.375v-5h13.75v5c0,6.312-2.188,14.375-4.375,21.375
		c-0.188,0.688-0.25,1.188-0.438,1.438c0,0,0.062-0.125,0.125-0.375l-0.875,2.438c-3.375,5.562-10.312,12.625-14.812,16.938
		l34.938,49.188h-16.875l-29.625-41.688c-4.25,1.5-8.688,2.25-13.25,2.25h-1.812c-0.812,0-1.75,0.062-2.688,0.062
		c-0.5,0-0.938,0-1.438-0.062v39.438H106.948z"/>
	<path d="M198.573,1561.085c0-6.938,1.688-13.938,4.375-18.438c1.875-3.25,6.938-9.938,11.938-12.25
		c4-1.812,9.062-2.938,13.625-2.938c4.688,0,8.75,0.875,13.312,3.062c4.875,2.312,10.312,8,13.25,14.312
		c1.062,2.312,2.875,9.25,2.875,14.625v6.875h-45.125c0.438,2.688,1.188,4.938,1.938,6.188c0.812,1.5,4.188,4.938,6.75,7.125
		c2.188,0.875,4.5,1.312,7,1.312c2.688,0,10.438-1.812,12.938-3.062l3.5-1.75l11.375,9.688c-2.688,1.438-5.625,2.812-8.938,4.5
		h-0.062c-4.188,2-13.875,4.375-18.812,4.375c-4.812,0-9.375-0.875-13.625-2.875l-0.938-0.438l-0.75-0.688
		c-1.312-1.188-7.75-6.938-10.25-11.125c-2.688-4.5-4.375-11.562-4.375-18.438V1561.085z M243.136,1552.585
		c-0.188-0.938-0.375-1.562-0.562-2c-2-3.812-5.312-7-6.625-7.562c-2.688-1.188-4.75-1.812-7.438-1.812
		c-2.938,0-6.125,0.75-7.938,1.688c-1,0.5-3.875,3.75-5.812,6.812c-0.375,0.625-0.812,1.562-1.188,2.875H243.136z"/>
	<path d="M268.636,1561.085c0-6.938,1.688-13.938,4.375-18.438c1.875-3.25,6.938-9.938,11.938-12.25
		c4-1.812,9.062-2.938,13.625-2.938c4.688,0,8.75,0.875,13.312,3.062c4.875,2.312,10.312,8,13.25,14.312
		c1.062,2.312,2.875,9.25,2.875,14.625v6.875h-45.125c0.438,2.688,1.188,4.938,1.938,6.188c0.812,1.5,4.188,4.938,6.75,7.125
		c2.188,0.875,4.5,1.312,7,1.312c2.688,0,10.438-1.812,12.938-3.062l3.5-1.75l11.375,9.688c-2.688,1.438-5.625,2.812-8.938,4.5
		h-0.062c-4.188,2-13.875,4.375-18.812,4.375c-4.812,0-9.375-0.875-13.625-2.875l-0.938-0.438l-0.75-0.688
		c-1.312-1.188-7.75-6.938-10.25-11.125c-2.688-4.5-4.375-11.562-4.375-18.438V1561.085z M313.198,1552.585
		c-0.188-0.938-0.375-1.562-0.562-2c-2-3.812-5.312-7-6.625-7.562c-2.688-1.188-4.75-1.812-7.438-1.812
		c-2.938,0-6.125,0.75-7.938,1.688c-1,0.5-3.875,3.75-5.812,6.812c-0.375,0.625-0.812,1.562-1.188,2.875H313.198z"/>
	<path d="M341.823,1593.085v-96.125h13.75v4.75l41.375-7.062h10.5v7.062l41.375-7.062h12.562v98.438h-13.75v-84.25l-40.188,6.812
		v77.438h-13.75v-83.938l-38.125,6.5v77.438H341.823z"/>
	<path d="M480.573,1553.647c0-7.75,3.188-17.5,6.188-26.125c0.25-0.688,0.438-1.562,0.625-1.75c-0.062,0.25-0.125,0.375-0.125,0.438
		l1.125-2.688c6.688-9.938,24.625-24.188,26.688-25.438l1.312-0.812c8.062-3.75,16.562-5.625,25.5-5.625
		c8.688,0,17.188,1.5,24.938,5.375l1,0.5c3.625,1.812,20.312,13.75,25.125,21.875c5,8.312,10.25,21.625,10.25,34.25v0.062v0.062
		c0,12.688-5.312,25.812-10.25,34.25c-4.75,8.125-21.625,20.125-25.125,21.875l-1,0.5c-7.75,3.875-16.25,5.375-24.938,5.375
		c-8.938,0-17.438-1.875-25.5-5.625l-1.312-0.812c-1.938-1.5-19.938-15.5-26.688-25.5l-1.125-2.625c0,0.062,0.062,0.188,0.125,0.438
		c-0.188-0.188-0.375-1.062-0.625-1.75c-3-8.625-6.188-18.312-6.188-26.125V1553.647z M499.698,1575.272l0.562,1.562
		c5,6.812,17.375,17.062,22.625,21.188c6.062,2.688,12.438,4,19,4s12.875-1.312,18.812-3.938
		c7.188-4.875,18.125-13.125,20.438-17.062c3.812-6.5,8.312-17.5,8.312-27.312s-4.438-20.812-8.312-27.312
		c-2.312-3.875-13.375-12.375-20.438-17.062c-5.938-2.625-12.25-3.938-18.812-3.938s-12.938,1.312-19,4
		c-5.25,4.25-17.562,14.375-22.625,21.188l-0.562,1.562c-1.5,4.188-5.375,15.062-5.375,21.562S498.198,1571.085,499.698,1575.272z
		 M506.011,1553.897c0-4.312,1.375-9.438,3.188-13.812l0.312-0.75c-0.062,0-0.125,0.188-0.188,0.625l1.125-2.688
		c3.5-5.188,12.062-11.812,13.688-13.125l1.312-0.812c4.438-2.062,9.062-3.062,13.875-3.062c4.75,0,9.438,0.875,13.562,2.938l1,0.5
		c1.25,0.625,3,2.062,4.938,3.562v-4.812h13.75v29.812c0,0.562,0.062,1.062,0.062,1.625v0.062c0,0.5-0.062,1.062-0.062,1.562v30
		h-13.75v-4.938c-1.938,1.438-3.688,2.875-4.938,3.5l-1,0.5c-4.188,2.062-8.812,2.938-13.562,2.938c-4.938,0-9.562-1-13.875-3.062
		l-1.312-0.812c-1.75-1.062-10.188-7.938-13.688-13.125l-1.125-2.625c0.062,0.375,0.125,0.562,0.188,0.625
		c-0.062-0.188-0.125-0.438-0.312-0.75c-1.562-4.5-3.188-9.562-3.188-13.812V1553.897z M522.198,1563.147
		c0,0.188,0.062,0.188,0.062,0.25c2,2.5,6.5,6.375,9.688,8.875c2.312,1,4.75,1.5,7.375,1.5s5.125-0.5,7.438-1.5
		c3.812-2.5,7.875-5.75,8.625-7c1.625-2.562,3.438-6.812,3.438-10.312v-2.125c0-3.562-1.875-7.625-3.5-10.312
		c-0.688-1.125-4.812-4.562-8.562-7c-2.312-1-4.812-1.5-7.438-1.5s-5.062,0.5-7.375,1.5c-3.125,2.5-7.75,6.438-9.688,8.875
		c0,0.188-0.062,0.188-0.062,0.25c-0.688,1.688-2.438,6.812-2.438,9.25C519.761,1556.46,521.573,1561.522,522.198,1563.147z"/>
	<path d="M615.448,1544.647c0-6.25,2.75-14.062,4.938-20.938l0.438-1.375c0,0-0.062,0.188-0.125,0.5l1.125-2.625
		c5.5-8,19.562-19.125,21.25-20.312l1.312-0.75c6.25-3.562,13.312-4.562,20.562-4.562c7.062,0,14,0.812,20.188,4.312l1,0.562
		c2.625,1.5,9,6.125,14.188,10.812v-13.312h65.25v13.75h-51.5v27.375h37.875v13.75h-37.875v27.5h50.75v13.75l-64.562-0.125v-13.875
		c-5.125,4.812-11.5,9.312-14.125,10.812l-1,0.562c-6.188,3.5-13.125,4.312-20.188,4.312c-7.312,0-14.125-1.5-20.562-4.5
		l-1.312-0.812c-1.562-1.312-15.75-12.312-21.25-20.312l-1.125-2.625l0.125,0.5l-0.438-1.375
		c-2.188-6.938-4.938-14.562-4.938-20.875V1544.647z M633.323,1561.085c0.188,0.438,0.188,0.75,0.375,1
		c3.812,4.938,13.062,12.875,17.188,16c4.5,1.938,9.188,2.938,14.062,2.938c4.812,0,9.5-0.938,14.062-2.875
		c6.312-4.312,14-10.312,15.438-12.812c2.312-3.938,4.812-9.812,5.875-15.812v-9.625c-1-6.062-3.688-11.938-5.875-15.812
		c-1.5-2.562-9.125-8.562-15.438-12.875c-4.562-1.938-9.25-2.875-14.062-2.875c-4.875,0-9.562,1-14.062,2.938
		c-4.125,3.312-13.312,11-17.188,16c-0.188,0.312-0.188,0.562-0.375,1c-1.125,3.125-4.125,11.625-4.125,16.438
		C629.198,1549.46,632.198,1557.96,633.323,1561.085z"/>
	<path d="M777.948,1563.897v-13.75h9.312c-0.188-1.438-0.25-2.875-0.25-4.188v-0.125c0-1.312,0.062-2.688,0.25-4.188h-9.312v-13.75
		h12.375c0.25-0.688,0.438-1.438,0.625-2.125l0.438-1.375c-0.062,0.188-0.062,0.375-0.125,0.438l0.875-2.375
		c4.562-7.875,16.188-18.625,17.438-19.875l1.375-1c5.562-3.062,11.5-4.625,17.812-4.625c6.062,0,11.875,1.5,17.438,4.438
		l-6.5,12.125c-3.5-1.875-7.125-2.812-10.938-2.812c-3.625,0-7.125,0.875-10.438,2.562c-3.25,2.938-10.062,9.812-13.375,14.625h24.5
		v13.75h-28.25c-0.25,1.562-0.438,3.062-0.438,4.25c0,1.25,0.188,2.688,0.438,4.25h28.25v13.75h-24.5
		c3.312,4.812,10.062,11.688,13.375,14.625c3.312,1.688,6.812,2.562,10.438,2.562c3.812,0,7.438-0.938,10.938-2.812l6.5,12.125
		c-5.5,3-11.375,4.438-17.438,4.438c-6.312,0-12.25-1.562-17.812-4.625l-1.375-1c-1.25-1.25-12.875-12-17.438-19.812l-0.875-2.438
		l0.125,0.438c-0.062-0.25-0.25-0.625-0.438-1.312c-0.188-0.75-0.375-1.438-0.625-2.188H777.948z"/>
</g>
</svg>
